<svg width="146" height="44" viewBox="0 0 146 44" fill="none" xmlns="http://www.w3.org/2000/svg">
<rect width="43.832" height="43.832" rx="7.88976" fill="url(#paint0_linear_11902_613)"/>
<g filter="url(#filter0_di_11902_613)">
<path d="M33.258 32.413H29.3487C29.1852 32.413 29.0508 32.2854 29.0363 32.1225C29.0317 32.071 29.0267 32.0211 29.0214 31.9726C28.7973 29.9298 26.5982 28.1752 24.5583 28.4238C23.0692 28.6052 21.8351 29.7293 20.3445 29.8976C19.3393 30.011 18.4621 29.9594 17.4596 29.7629C16.5809 29.5907 15.7327 29.2756 14.952 28.8372C13.1132 27.8044 12.126 26.7409 11.2107 25.1387C10.681 24.2113 10.303 23.1958 10.1655 22.1367C10.0517 21.2602 10.0589 20.4879 10.1544 19.6373C10.3004 18.3379 10.7168 17.0731 11.3964 15.956C12.3504 14.3877 13.3816 13.4125 15.0616 12.4997C15.7731 12.1131 16.5387 11.8304 17.3296 11.6567C19.3324 11.2169 20.629 11.3458 22.5759 11.956C23.6591 12.2955 24.8356 13.0229 25.8362 13.9722C28.0243 16.0481 28.1911 19.3058 28.2464 22.3215C28.2516 22.601 27.996 22.8124 27.7209 22.7627C26.3696 22.5183 25.3981 22.4987 24.0703 22.7098C23.7143 22.7664 23.4214 22.3979 23.5175 22.0505C23.5591 21.8998 23.5918 21.7518 23.6163 21.6058C24.0088 19.2711 22.4111 16.606 20.0547 16.3763C18.718 16.246 17.3943 16.7918 16.4138 17.8864C15.8286 18.4381 15.5049 19.3034 15.4028 20.2261C15.1383 22.6172 17.0941 24.9295 19.497 25.0438C19.9555 25.0656 20.3982 24.999 20.8505 24.8457C22.2759 24.3625 23.6654 23.6404 25.1662 23.7534C29.6812 24.0934 32.8523 26.1288 33.6866 31.9218C33.724 32.1814 33.5203 32.413 33.258 32.413Z" fill="#FAFAFA"/>
</g>
<path d="M64.256 15.208C66.0853 15.208 67.5413 15.8053 68.624 17C69.7253 18.176 70.276 19.8 70.276 21.872V31H65.516V22.516C65.516 21.4707 65.2453 20.6587 64.704 20.08C64.1627 19.5013 63.4347 19.212 62.52 19.212C61.6053 19.212 60.8773 19.5013 60.336 20.08C59.7947 20.6587 59.524 21.4707 59.524 22.516V31H54.736V15.376H59.524V17.448C60.0093 16.7573 60.6627 16.216 61.484 15.824C62.3053 15.4133 63.2293 15.208 64.256 15.208ZM89.0312 15.376V31H84.2432V28.872C83.7579 29.5627 83.0952 30.1227 82.2552 30.552C81.4339 30.9627 80.5192 31.168 79.5112 31.168C78.3165 31.168 77.2619 30.9067 76.3472 30.384C75.4325 29.8427 74.7232 29.068 74.2192 28.06C73.7152 27.052 73.4632 25.8667 73.4632 24.504V15.376H78.2232V23.86C78.2232 24.9053 78.4939 25.7173 79.0352 26.296C79.5765 26.8747 80.3045 27.164 81.2192 27.164C82.1525 27.164 82.8899 26.8747 83.4312 26.296C83.9725 25.7173 84.2432 24.9053 84.2432 23.86V15.376H89.0312ZM101.71 31L98.7144 26.66L96.1944 31H91.0144L96.1664 23.02L90.8744 15.376H96.2504L99.2464 19.688L101.766 15.376H106.946L101.71 23.244L107.086 31H101.71ZM117.639 26.94V31H115.203C113.467 31 112.114 30.58 111.143 29.74C110.173 28.8813 109.687 27.4907 109.687 25.568V19.352H107.783V15.376H109.687V11.568H114.475V15.376H117.611V19.352H114.475V25.624C114.475 26.0907 114.587 26.4267 114.811 26.632C115.035 26.8373 115.409 26.94 115.931 26.94H117.639ZM127.257 23.216C127.257 21.6667 127.574 20.2853 128.209 19.072C128.862 17.8587 129.73 16.916 130.813 16.244C131.914 15.5533 133.109 15.208 134.397 15.208C135.386 15.208 136.273 15.3853 137.057 15.74C137.841 16.076 138.475 16.552 138.961 17.168V15.376H143.749V38.448H138.961V29.04C138.419 29.6933 137.757 30.216 136.973 30.608C136.207 31 135.33 31.196 134.341 31.196C133.071 31.196 131.895 30.86 130.813 30.188C129.73 29.516 128.862 28.5733 128.209 27.36C127.574 26.1467 127.257 24.7653 127.257 23.216ZM138.961 23.188C138.961 22.348 138.793 21.648 138.457 21.088C138.139 20.5093 137.719 20.08 137.197 19.8C136.674 19.5013 136.123 19.352 135.545 19.352C134.985 19.352 134.443 19.5013 133.921 19.8C133.398 20.08 132.969 20.5093 132.633 21.088C132.297 21.6667 132.129 22.376 132.129 23.216C132.129 24.056 132.297 24.7653 132.633 25.344C132.969 25.904 133.398 26.3333 133.921 26.632C134.443 26.912 134.985 27.052 135.545 27.052C136.105 27.052 136.646 26.912 137.169 26.632C137.71 26.3333 138.139 25.8947 138.457 25.316C138.793 24.7373 138.961 24.028 138.961 23.188Z" fill="black"/>
<path d="M122.546 31.224C121.706 31.224 121.016 30.9813 120.474 30.496C119.952 29.992 119.69 29.376 119.69 28.648C119.69 27.9013 119.952 27.276 120.474 26.772C121.016 26.268 121.706 26.016 122.546 26.016C123.368 26.016 124.04 26.268 124.562 26.772C125.104 27.276 125.374 27.9013 125.374 28.648C125.374 29.376 125.104 29.992 124.562 30.496C124.04 30.9813 123.368 31.224 122.546 31.224Z" fill="#297FFF"/>
<defs>
<filter id="filter0_di_11902_613" x="8.44906" y="11.3963" width="26.8743" height="24.2814" filterUnits="userSpaceOnUse" color-interpolation-filters="sRGB">
<feFlood flood-opacity="0" result="BackgroundImageFix"/>
<feColorMatrix in="SourceAlpha" type="matrix" values="0 0 0 0 0 0 0 0 0 0 0 0 0 0 0 0 0 0 127 0" result="hardAlpha"/>
<feOffset dy="1.63237"/>
<feGaussianBlur stdDeviation="0.816183"/>
<feColorMatrix type="matrix" values="0 0 0 0 0 0 0 0 0 0 0 0 0 0 0 0 0 0 0.07 0"/>
<feBlend mode="normal" in2="BackgroundImageFix" result="effect1_dropShadow_11902_613"/>
<feBlend mode="normal" in="SourceGraphic" in2="effect1_dropShadow_11902_613" result="shape"/>
<feColorMatrix in="SourceAlpha" type="matrix" values="0 0 0 0 0 0 0 0 0 0 0 0 0 0 0 0 0 0 127 0" result="hardAlpha"/>
<feOffset dy="1.63237"/>
<feGaussianBlur stdDeviation="1.02023"/>
<feComposite in2="hardAlpha" operator="arithmetic" k2="-1" k3="1"/>
<feColorMatrix type="matrix" values="0 0 0 0 0.219608 0 0 0 0 0.533333 0 0 0 0 1 0 0 0 0.13 0"/>
<feBlend mode="normal" in2="shape" result="effect2_innerShadow_11902_613"/>
</filter>
<linearGradient id="paint0_linear_11902_613" x1="52.463" y1="-66.3077" x2="19.6129" y2="48.5381" gradientUnits="userSpaceOnUse">
<stop stop-color="#5498FF"/>
<stop offset="0.515625" stop-color="#428EFF"/>
<stop offset="1" stop-color="#297FFF"/>
</linearGradient>
</defs>
</svg>
